<svg width="240" height="150" viewBox="0 0 240 150" fill="none" xmlns="http://www.w3.org/2000/svg">
<g filter="url(#filter0_d)">
<path d="M210 30C210 41.819 207.672 53.5222 203.149 64.4415C198.626 75.3608 191.997 85.2823 183.64 93.6396C175.282 101.997 165.361 108.626 154.442 113.149C143.522 117.672 131.819 120 120 120C108.181 120 96.4778 117.672 85.5585 113.149C74.6392 108.626 64.7177 101.997 56.3604 93.6396C48.0031 85.2823 41.3738 75.3608 36.8508 64.4415C32.3279 53.5222 30 41.819 30 30L120 30H210Z" fill="url(#paint0_linear)"/>
</g>
<defs>
<filter id="filter0_d" x="0" y="0" width="240" height="150" filterUnits="userSpaceOnUse" color-interpolation-filters="sRGB">
<feFlood flood-opacity="0" result="BackgroundImageFix"/>
<feColorMatrix in="SourceAlpha" type="matrix" values="0 0 0 0 0 0 0 0 0 0 0 0 0 0 0 0 0 0 127 0" result="hardAlpha"/>
<feOffset/>
<feGaussianBlur stdDeviation="15"/>
<feComposite in2="hardAlpha" operator="out"/>
<feColorMatrix type="matrix" values="0 0 0 0 0.462745 0 0 0 0 0.796078 0 0 0 0 0.654902 0 0 0 1 0"/>
<feBlend mode="normal" in2="BackgroundImageFix" result="effect1_dropShadow"/>
<feBlend mode="normal" in="SourceGraphic" in2="effect1_dropShadow" result="shape"/>
</filter>
<linearGradient id="paint0_linear" x1="120" y1="-60" x2="120" y2="120" gradientUnits="userSpaceOnUse">
<stop stop-color="#1FAF72"/>
<stop offset="1" stop-color="#77CBA7"/>
</linearGradient>
</defs>
</svg>
