<svg id="Layer_1" data-name="Layer 1" xmlns="http://www.w3.org/2000/svg" xmlns:xlink="http://www.w3.org/1999/xlink" viewBox="0 0 641.92 610.17"><defs><style>.cls-1{fill:url(#linear-gradient);}.cls-2{fill:url(#linear-gradient-2);}.cls-3{fill:url(#linear-gradient-3);}.cls-4{fill:#fff;fill-opacity:0.4;}.cls-5,.cls-6,.cls-7,.cls-8{fill:none;}.cls-5,.cls-7,.cls-8{stroke:#fff;}</style><linearGradient id="linear-gradient" x1="-107.57" y1="121.11" x2="-107.57" y2="-22.21" gradientTransform="matrix(1, 0, 0, -1, 340.99, 303.61)" gradientUnits="userSpaceOnUse"><stop offset="0" stop-color="#82cdac"/><stop offset="1" stop-color="#257c56"/></linearGradient><linearGradient id="linear-gradient-2" x1="-494.35" y1="-236.41" x2="-288.4" y2="-253.03" gradientTransform="matrix(0, -1, -1, 0, 224.75, 23.7)" gradientUnits="userSpaceOnUse"><stop offset="0" stop-color="#4d66b1"/><stop offset="1" stop-color="#aec1fa"/></linearGradient><linearGradient id="linear-gradient-3" x1="-487.36" y1="166.48" x2="-322.84" y2="153.2" gradientTransform="matrix(0, -1, -1, 0, 761.52, -191.73)" gradientUnits="userSpaceOnUse"><stop offset="0" stop-color="#8f5cf0"/><stop offset="1" stop-color="#d3befb"/></linearGradient></defs><rect class="cls-1" x="161.75" y="182.5" width="143.32" height="143.32" rx="47" transform="translate(-197.24 247.25) rotate(-48.01)"/><rect class="cls-2" x="366.59" y="312.59" width="205.71" height="205.71" rx="54" transform="translate(-178.93 128.98) rotate(-15.37)"/><rect class="cls-3" x="519.49" y="131.5" width="164.33" height="164.33" rx="30" transform="translate(-84.16 420.97) rotate(-39.48)"/><rect class="cls-4" x="143.04" y="285.55" width="252" height="252" rx="20" transform="translate(-303.37 470.24) rotate(-64.9)"/><rect class="cls-5" x="143.54" y="286.05" width="251" height="251" rx="19.5" transform="translate(-303.37 470.24) rotate(-64.9)"/><rect class="cls-6" x="120.55" y="333.55" width="252" height="252" rx="20" transform="translate(-359.78 477.51) rotate(-64.9)"/><rect class="cls-4" x="529.05" y="264.5" width="182.45" height="182.45" rx="20" transform="translate(30.54 852.45) rotate(-75)"/><rect class="cls-7" x="529.55" y="265" width="181.45" height="181.45" rx="19.5" transform="translate(30.54 852.45) rotate(-75)"/><rect class="cls-6" x="514.5" y="318.8" width="182.45" height="182.45" rx="20" transform="translate(-32.7 878.65) rotate(-75)"/><rect class="cls-4" x="352.3" y="75.36" width="175.72" height="175.72" rx="20" transform="translate(-114.68 139.07) rotate(-18.66)"/><rect class="cls-8" x="352.79" y="75.86" width="174.72" height="174.72" rx="19.5" transform="translate(-114.68 139.07) rotate(-18.66)"/><rect class="cls-6" x="336.49" y="28.49" width="175.72" height="175.72" rx="20" transform="translate(-100.51 131.55) rotate(-18.66)"/></svg>