<svg xmlns="http://www.w3.org/2000/svg" xmlns:xlink="http://www.w3.org/1999/xlink" viewBox="0 0 641.92 610.17"><defs><style>.cls-1{fill:url(#linear-gradient);}.cls-2{fill:url(#linear-gradient-2);}.cls-3{fill:url(#linear-gradient-3);}.cls-4{fill:#fff;fill-opacity:0.4;}.cls-5,.cls-6,.cls-7,.cls-8{fill:none;}.cls-5,.cls-7,.cls-8{stroke:#fff;}</style><linearGradient id="linear-gradient" x1="-193.16" y1="110.77" x2="-193.16" y2="-32.55" gradientTransform="matrix(1, 0, 0, -1, 340.99, 282.92)" gradientUnits="userSpaceOnUse"><stop offset="0" stop-color="#82cdac"/><stop offset="1" stop-color="#257c56"/></linearGradient><linearGradient id="linear-gradient-2" x1="-579.94" y1="-246.75" x2="-373.99" y2="-263.38" gradientTransform="matrix(0, -1, -1, 0, 128.82, -72.23)" gradientUnits="userSpaceOnUse"><stop offset="0" stop-color="#4d66b1"/><stop offset="1" stop-color="#aec1fa"/></linearGradient><linearGradient id="linear-gradient-3" x1="-572.95" y1="156.14" x2="-408.43" y2="142.86" gradientTransform="matrix(0, -1, -1, 0, 665.59, -287.67)" gradientUnits="userSpaceOnUse"><stop offset="0" stop-color="#8f5cf0"/><stop offset="1" stop-color="#d3befb"/></linearGradient></defs><g id="Layer_2" data-name="Layer 2"><g id="Layer_1-2" data-name="Layer 1"><rect class="cls-1" x="76.16" y="172.15" width="143.32" height="143.32" rx="47" transform="translate(-132.28 190.55) rotate(-48.01)"/><rect class="cls-2" x="281" y="302.25" width="205.71" height="205.71" rx="54" transform="translate(-93.66 116.26) rotate(-15.37)"/><rect class="cls-3" x="433.9" y="121.15" width="164.33" height="164.33" rx="30" transform="translate(-11.52 374.53) rotate(-39.48)"/><rect class="cls-4" x="57.45" y="275.21" width="252" height="252" rx="20" transform="translate(-257.7 397.12) rotate(-64.9)"/><rect class="cls-5" x="57.95" y="275.71" width="251" height="251" rx="19.5" transform="translate(-257.7 397.12) rotate(-64.9)"/><rect class="cls-6" x="34.96" y="323.21" width="252" height="252" rx="20" transform="translate(-314.1 404.39) rotate(-64.9)"/><rect class="cls-4" x="443.46" y="254.16" width="182.45" height="182.45" rx="20" transform="translate(62.68 772.46) rotate(-75)"/><rect class="cls-7" x="443.96" y="254.66" width="181.45" height="181.45" rx="19.5" transform="translate(62.68 772.46) rotate(-75)"/><rect class="cls-6" x="428.91" y="308.46" width="182.45" height="182.45" rx="20" transform="translate(-0.55 798.65) rotate(-75)"/><rect class="cls-4" x="266.7" y="65.02" width="175.72" height="175.72" rx="20" transform="translate(-30.27 121.48) rotate(-18.66)"/><rect class="cls-8" x="267.2" y="65.52" width="174.72" height="174.72" rx="19.5" transform="translate(-30.27 121.48) rotate(-18.66)"/><rect class="cls-6" x="250.9" y="18.15" width="175.72" height="175.72" rx="20" transform="translate(-16.11 113.96) rotate(-18.66)"/></g></g></svg>